<?xml version="1.0" encoding="UTF-8" standalone="no"?>
<svg
   height="2104"
   viewBox="5.7 58.2 1186.6 1052.1"
   width="2500"
   version="1.1"
   id="svg5"
   sodipodi:docname="solid-logo-orange.svg"
   inkscape:version="1.3 (0e150ed6c4, 2023-07-21)"
   xmlns:inkscape="http://www.inkscape.org/namespaces/inkscape"
   xmlns:sodipodi="http://sodipodi.sourceforge.net/DTD/sodipodi-0.dtd"
   xmlns="http://www.w3.org/2000/svg"
   xmlns:svg="http://www.w3.org/2000/svg">
  <defs
     id="defs5" />
  <sodipodi:namedview
     id="namedview5"
     pagecolor="#ffffff"
     bordercolor="#000000"
     borderopacity="0.25"
     inkscape:showpageshadow="2"
     inkscape:pageopacity="0.0"
     inkscape:pagecheckerboard="0"
     inkscape:deskcolor="#d1d1d1"
     inkscape:zoom="0.2308"
     inkscape:cx="1250"
     inkscape:cy="1052.8596"
     inkscape:window-width="1918"
     inkscape:window-height="1062"
     inkscape:window-x="1920"
     inkscape:window-y="16"
     inkscape:window-maximized="1"
     inkscape:current-layer="svg5" />
  <path
     d="m260.7 1049.4-233.4-404.8c-21.6-37.5-21.6-83.7 0-121.2l233.4-404.5c21.7-37.6 61.8-60.7 105-60.7h466.5c43.3 0 83.5 23.1 105 60.7l233.5 404.7c21.6 37.5 21.6 83.7 0 121.2l-233.4 404.8c-21.7 37.6-61.8 60.7-105 60.7h-466.3c-43.5-.2-83.5-23.4-105.3-60.9z"
     fill="#fff"
     id="path1" />
  <path
     d="m280.6 1021.9-219.5-380.7c-20.4-35.3-20.4-78.8 0-114l219.5-380.8c20.5-35.4 58.2-57.1 98.9-57.1h439c40.7 0 78.5 21.7 98.9 57.1l219.7 380.6c20.4 35.3 20.4 78.8 0 114l-219.6 381c-20.5 35.4-58.2 57.1-98.9 57.1h-438.9c-40.9 0-78.6-21.8-99.1-57.2z"
     fill="#7c4dff"
     id="path2" />
  <g
     fill="#f7f7f7"
     id="g4">
    <path
       d="m377.9 510.9h451.7c5.7 0 10.2-4.6 10.2-10.2v-84.7c0-56.3-45.7-102-102-102h-271.2c-78.9-.1-142.8 63.8-142.8 142.7-.1 30.1 24.1 54.2 54.1 54.2zm44.3 374.2h269.9c81.5 0 147.7-66.2 147.7-147.7 0-27.2-22-49.3-49.3-49.3h-456.9c-5.6 0-9.8 4.5-9.8 9.8v88.6c-.1 54.5 44.1 98.6 98.4 98.6z"
       id="path3" />
    <path
       d="m343.8 499.7 336.9 336.9c22.3 22.3 58.4 22.3 80.7 0l58.4-58.4c22.3-22.3 22.3-58.4 0-80.7l-336.8-336.9c-22.3-22.3-58.4-22.3-80.7 0l-58.4 58.4c-22.5 22.3-22.5 58.5-.1 80.7z"
       id="path4" />
  </g>
  <path
     d="m686.2 842.3-197.9-154.2h43.8zm-208.8-487.3 155.9 155.9h52.9z"
     fill="#444"
     opacity=".3"
     id="path5" />
  <path
     style="fill:#ff851b;stroke-width:4.33276;fill-opacity:1"
     d="m 754.72842,2032.059 c -36.88427,-10.1397 -68.76469,-28.8405 -99.02543,-58.0874 -28.16196,-27.2184 -40.20238,-47.0406 -255.5288,-420.6787 -124.28584,-215.6629 -230.48318,-402.2294 -235.9941,-414.5921 -21.39634,-47.9989 -23.64943,-105.0426 -6.19537,-156.85414 11.11814,-33.00368 460.64154,-813.24061 484.48755,-840.92413 24.25126,-28.154 64.89896,-54.484257 102.24159,-66.228822 l 30.8494,-9.702374 H 1250 1724.4367 l 30.3293,9.568625 c 50.0485,15.789842 93.1032,47.703491 120.4884,89.310171 37.7845,57.4065 459.5008,794.68425 467.0632,816.55673 18.0319,52.15344 14.0922,119.95394 -9.6902,166.76254 -17.844,35.1206 -451.131,785.3282 -461.7706,799.5252 -30.6334,40.8753 -77.1198,72.1499 -126.9554,85.4114 -33.615,8.9452 -956.61786,8.8827 -989.17298,-0.067 z m 754.66318,-384.8691 c 128.2379,-34.2983 220.4426,-149.3057 222.9119,-278.0391 1.0516,-54.8221 8.752,-45.1086 -208.6662,-263.2149 L 1326.0391,907.71231 h 197.87 197.8699 l 6.7448,-9.6296 c 5.5672,-7.94831 6.7298,-24.77976 6.659,-96.40381 -0.047,-47.72582 -2.0277,-100.20806 -4.4011,-116.62721 -12.1565,-84.09896 -81.9852,-156.68592 -165.2844,-171.8133 -15.869,-2.88189 -132.9469,-4.01439 -329.2894,-3.18527 l -304.66544,1.28652 -30.32929,10.09468 c -47.99168,15.97331 -83.63345,38.05251 -119.37734,73.95125 -37.13531,37.29623 -64.63678,84.99199 -75.44549,130.84511 -8.62821,36.60299 -8.6107,94.71373 0.0348,115.54627 4.57548,11.02526 69.84337,79.34549 206.82613,216.49865 l 200.14113,200.3899 H 911.42946 c -182.89965,0 -202.52417,0.6789 -207.90936,7.1926 -4.69198,5.6752 -5.91962,29.6682 -5.81928,113.7348 0.11647,97.5527 0.93614,109.1486 9.71456,137.4317 21.80438,70.2514 84.88575,124.8419 156.90611,135.7863 13.14138,1.9969 157.45061,3.2095 320.68721,2.6944 263.9347,-0.8328 299.8482,-1.7534 324.3829,-8.3154 z"
     id="path6"
     transform="matrix(0.50004753,0,0,0.50004753,-26.059411,58.2)" />
</svg>
