<?xml version="1.0" encoding="UTF-8" standalone="no"?>
<svg
   width="305.94794"
   height="273.76071"
   version="1.1"
   id="svg14"
   sodipodi:docname="trads_icon.svg"
   inkscape:version="1.2.1 (9c6d41e410, 2022-07-14)"
   xmlns:inkscape="http://www.inkscape.org/namespaces/inkscape"
   xmlns:sodipodi="http://sodipodi.sourceforge.net/DTD/sodipodi-0.dtd"
   xmlns="http://www.w3.org/2000/svg"
   xmlns:svg="http://www.w3.org/2000/svg">
  <sodipodi:namedview
     id="namedview10"
     pagecolor="#505050"
     bordercolor="#eeeeee"
     borderopacity="1"
     inkscape:showpageshadow="0"
     inkscape:pageopacity="0"
     inkscape:pagecheckerboard="0"
     inkscape:deskcolor="#505050"
     showgrid="false"
     inkscape:zoom="3.7514514"
     inkscape:cx="141.27865"
     inkscape:cy="94.363478"
     inkscape:window-width="1920"
     inkscape:window-height="1017"
     inkscape:window-x="2552"
     inkscape:window-y="-8"
     inkscape:window-maximized="1"
     inkscape:current-layer="svg14" />
  <defs
     id="defs18" />
  <path
     d="M 64.946938,257.91429 4.215308,152.58366 c -5.62041,-9.75765 -5.62041,-21.77908 0,-31.53674 L 64.946938,15.79439 C 70.593368,6.01072 81.027548,0 92.268368,0 H 213.65357 c 11.26684,0 21.72704,6.01072 27.32143,15.7944 l 60.75765,105.30458 c 5.62041,9.75766 5.62041,21.77909 0,31.53674 l -60.73163,105.33061 c -5.64643,9.78367 -16.08061,15.79439 -27.32143,15.79439 H 92.346428 c -11.31888,-0.052 -21.72704,-6.08878 -27.3995,-15.84643 z"
     fill="#ffffff"
     id="path2"
     style="fill-rule:nonzero" />
  <path
     d="m 70.124998,250.75867 -57.1148,-99.0597 c -5.30816,-9.1852 -5.30816,-20.50408 0,-29.66326 l 57.1148,-99.08572 C 75.459178,13.73877 85.268878,8.09234 95.859178,8.09234 H 210.08878 c 10.5903,0 20.42602,5.64643 25.73418,14.85765 l 57.16684,99.03368 c 5.30816,9.1852 5.30816,20.50408 0,29.66326 l -57.14082,99.13776 c -5.33418,9.21122 -15.14388,14.85765 -25.73418,14.85765 H 95.911218 c -10.64234,0 -20.45204,-5.67245 -25.78622,-14.88367 z"
     fill="#7c4dff"
     id="path4"
     style="fill:#ff851b;fill-opacity:1;fill-rule:nonzero" />
  <path
     d="M 95.442858,117.79439 H 212.97704 c 1.48316,0 2.65408,-1.19695 2.65408,-2.65409 V 93.10102 c 0,-14.6495 -11.89132,-26.54085 -26.54081,-26.54085 h -70.56735 c -20.530102,-0.026 -37.157222,16.60105 -37.157222,37.13115 -0.0259,7.83214 6.271,14.10306 14.07712,14.10306 z m 11.527042,97.36836 h 70.22908 c 21.20663,0 38.43214,-17.22551 38.43214,-38.43214 0,-7.07755 -5.72449,-12.82806 -12.82806,-12.82806 H 83.915818 c -1.45715,0 -2.55005,1.17091 -2.55005,2.55 v 23.05408 c -0.026,14.18112 11.47505,25.65612 25.604132,25.65612 z"
     fill="#f7f7f7"
     id="path6"
     style="fill-rule:nonzero" />
  <path
     d="m 86.569898,114.88009 87.662752,87.66276 c 5.80255,5.80255 15.19592,5.80255 20.99847,0 l 15.19592,-15.19592 c 5.80255,-5.80255 5.80255,-15.19591 0,-20.99847 L 122.79031,78.68571 c -5.80255,-5.80255 -15.19592,-5.80255 -20.99847,0 L 86.595918,93.88163 c -5.8546,5.80255 -5.8546,15.22194 -0.026,20.99847 z"
     fill="#f7f7f7"
     id="path8"
     style="fill-rule:nonzero" />
  <path
     fill="#444444"
     opacity="0.3"
     d="m 175.66378,204.02602 -51.4944,-40.12347 h 11.39695 z m -54.33062,-126.79745 40.56582,40.56581 h 13.7648 z"
     id="path10"
     style="fill-rule:nonzero" />
</svg>
